<svg xmlns="http://www.w3.org/2000/svg" viewBox="1200 2800 6000 5200" width="180" height="60">
  <style>
    .fil0 {fill:#32BFCA}
    .fil3 {fill:#F1770C}
    .fil2 {fill:white;fill-rule:nonzero}
    .fil4 {fill:white;fill-rule:nonzero}
  </style>
  <!-- Orange swirls -->
  <path class="fil3" d="M4579.6 3843.67c191.01,-280.67 462.17,-589.39 273.4,-737.16 -211.87,-170.81 -991.28,384.41 -1153.3,550.65 -116.49,119.52 1.62,198.91 173.02,86.65 163.7,-107.22 364.81,-293.78 550.85,-421 67.29,-46.02 133.46,-82.49 208.98,-110.91 441.54,-166.13 19.57,504.76 -52.94,631.77z"/>
  <path class="fil3" d="M3762.11 4094.63c-280.67,-191.01 -589.39,-462.17 -737.16,-273.4 -170.81,211.87 384.41,991.28 550.65,1153.3 119.52,116.49 198.91,-1.62 86.65,-173.02 -107.22,-163.7 -293.78,-364.81 -421,-550.85 -46.02,-67.29 -82.49,-133.46 -110.91,-208.98 -166.13,-441.54 504.76,-19.57 631.77,52.94z"/>
  <path class="fil3" d="M4013.06 4912.12c-191.01,280.67 -462.17,589.39 -273.4,737.16 211.87,170.81 991.28,-384.42 1153.3,-550.65 116.49,-119.52 -1.62,-198.91 -173.02,-86.66 -163.7,107.22 -364.81,293.78 -550.84,421 -67.3,46.02 -133.46,82.5 -208.98,110.92 -441.54,166.13 -19.57,-504.76 52.94,-631.77z"/>
  <path class="fil3" d="M4830.56 4661.16c280.67,191.01 589.39,462.17 737.16,273.4 170.81,-211.87 -384.41,-991.28 -550.65,-1153.3 -119.52,-116.49 -198.91,1.62 -86.65,173.02 107.22,163.7 293.78,364.81 421,550.85 46.02,67.29 82.49,133.46 110.91,208.98 166.13,441.54 -504.76,19.57 -631.77,-52.94z"/>
  <!-- Teal swirls -->
  <path class="fil0" d="M3519.97 3600.68c280.67,-191.01 641.44,-393.38 561.26,-612.94 -89.58,-243.97 -1090.16,55.91 -1301.35,163.14 -152.93,77.25 -76.68,179.87 117.89,114.14 184.85,-63.01 413.59,-180.01 618.63,-245.86 74.33,-23.91 147.5,-36.88 224.22,-33.58 455.33,18.88 -136.37,487.87 -220.66,615.1z"/>
  <path class="fil0" d="M3273.01 4847.81c-191.01,-280.67 -393.38,-641.44 -612.94,-561.26 -243.97,89.58 55.91,1090.16 163.14,1301.35 77.25,152.93 179.87,76.68 114.14,-117.89 -63.01,-184.85 -180.01,-413.59 -245.86,-618.63 -23.91,-74.33 -36.88,-147.5 -33.58,-224.22 18.88,-455.33 487.87,136.37 615.1,220.66z"/>
  <path class="fil0" d="M5072.69 5155.11c-280.67,191.01 -641.44,393.38 -561.26,612.94 89.58,243.97 1090.16,-55.91 1301.35,-163.14 152.93,-77.25 76.68,-179.87 -117.89,-114.14 -184.85,63.01 -413.59,180.01 -618.63,245.86 -74.33,23.91 -147.5,36.88 -224.22,33.58 -455.33,-18.88 136.37,-487.87 220.66,-615.1z"/>
  <path class="fil0" d="M5319.65 3907.98c191.01,280.67 393.38,641.44 612.94,561.26 243.97,-89.58 -55.91,-1090.16 -163.14,-1301.35 -77.25,-152.93 -179.87,-76.68 -114.14,117.89 63.01,184.85 180.01,413.59 245.86,618.63 23.91,74.33 36.88,147.5 33.58,224.22 -18.88,455.33 -487.87,-136.37 -615.1,-220.66z"/>
  <!-- e letter -->
  <path class="fil4" d="M4265.67 4566.5c-27.33,0 -51.33,-5.33 -70.67,-16 -19.33,-11.33 -33.33,-26.67 -43.33,-46.67 -10,-20.67 -15.33,-44.67 -15.33,-72 0,-28.67 4,-56.67 12,-84.67 8.67,-27.33 20.67,-52.67 36,-75.33 15.33,-23.33 34,-41.33 56,-55.33 22,-14 47.33,-20.67 74.67,-20.67 34,0 59.33,7.33 76,22 17.33,14.67 26,35.33 26,61.33 0,17.33 -4,34 -12,49.33 -8,15.33 -20.67,28.67 -37.33,40 -16.67,11.33 -38.67,20.67 -64.67,27.33 -26,6 -58,9.33 -94.67,9.33l-11.33 0c-0.67,4 -0.67,8 -1.33,12.67 0,4.67 0,8.67 0,12 0,27.33 6.67,48.67 20,64.67 13.33,15.33 33.33,23.33 60.67,23.33 16.67,0 32.67,-2.67 48,-7.33 15.33,-4.67 31.33,-11.33 49.33,-20l0 50c-16.67,7.33 -33.33,14 -50,18.67 -16,4.67 -35.33,7.33 -58,7.33zm-55.33 -208.67c26.67,0 51.33,-2 74,-6.67 22.67,-4.67 40.67,-12.67 54.67,-23.33 14,-11.33 20.67,-26 20.67,-44 0,-11.33 -4,-20.67 -12,-28 -7.33,-7.33 -19.33,-11.33 -36,-11.33 -14,0 -28,4.67 -42,13.33 -14,8.67 -26,22 -37.33,38.67 -11.33,16.67 -20,37.33 -26.67,61.33z"/>
  <!-- eTechCube text -->
  <text x="1400" y="7200" font-family="Arial, sans-serif" font-size="600" font-weight="bold" fill="white">eTechCube</text>
  <text x="1400" y="7800" font-family="Arial, sans-serif" font-size="220" fill="white" letter-spacing="8">Intelligence Combined with Technology</text>
</svg>
